<svg width="25" height="25" viewBox="0 0 25 25" fill="none" xmlns="http://www.w3.org/2000/svg">
<path d="M15.7659 15.4062C15.7659 15.8379 15.4163 16.1875 14.9846 16.1875H10.2971C9.86548 16.1875 9.51587 15.8379 9.51587 15.4062V13.0625H0.140869V20.0938C0.140869 21.3438 1.23462 22.4375 2.48462 22.4375H22.7971C24.0471 22.4375 25.1409 21.3438 25.1409 20.0938V13.0625H15.7659V15.4062ZM22.7971 5.25H18.8909V2.90625C18.8909 1.65625 17.7971 0.5625 16.5471 0.5625H8.73462C7.48462 0.5625 6.39087 1.65625 6.39087 2.90625V5.25H2.48462C1.23462 5.25 0.140869 6.34375 0.140869 7.59375V11.5H25.1409V7.59375C25.1409 6.34375 24.0471 5.25 22.7971 5.25ZM15.7659 5.25H9.51587V3.6875H15.7659V5.25Z" fill="currentColor"/>
</svg>
