<svg width="13" height="13" viewBox="0 0 13 13" fill="none" xmlns="http://www.w3.org/2000/svg">
<path d="M0.40625 2.78571H10.9688C11.1932 2.78571 11.375 2.57795 11.375 2.32143V0.464286C11.375 0.207768 11.1932 0 10.9688 0H0.40625C0.181797 0 0 0.207768 0 0.464286V2.32143C0 2.57795 0.181797 2.78571 0.40625 2.78571ZM12.5938 5.10714H2.03125C1.8068 5.10714 1.625 5.31491 1.625 5.57143V7.42857C1.625 7.68509 1.8068 7.89286 2.03125 7.89286H12.5938C12.8182 7.89286 13 7.68509 13 7.42857V5.57143C13 5.31491 12.8182 5.10714 12.5938 5.10714ZM10.9688 10.2143H0.40625C0.181797 10.2143 0 10.4221 0 10.6786V12.5357C0 12.7922 0.181797 13 0.40625 13H10.9688C11.1932 13 11.375 12.7922 11.375 12.5357V10.6786C11.375 10.4221 11.1932 10.2143 10.9688 10.2143Z" fill="current"/>
</svg>
