<svg width="269" height="270" viewBox="0 0 269 270" fill="none" xmlns="http://www.w3.org/2000/svg">
<path opacity="0.9" d="M256.846 141.454C263.625 141.81 268.89 147.607 267.916 154.325C264.716 176.404 256.052 197.407 242.626 215.386C226.741 236.659 204.906 252.743 179.88 261.605C154.854 270.467 127.763 271.709 102.031 265.174C76.2994 258.639 53.0835 244.62 35.3192 224.891C17.5548 205.161 6.03976 180.607 2.23025 154.334C-1.57925 128.06 2.48785 101.247 13.9173 77.2844C25.3467 53.3222 43.625 33.2873 66.4409 19.7132C85.725 8.24042 107.519 1.81857 129.811 0.944229C136.594 0.678202 141.81 6.52036 141.454 13.2991V13.2991C141.099 20.0778 135.303 25.213 128.527 25.6182C111.101 26.6603 94.1131 31.853 79.0093 40.8388C60.3717 51.9271 45.4406 68.293 36.1042 87.8671C26.7679 107.441 23.4456 129.344 26.5575 150.806C29.6693 172.269 39.0756 192.326 53.5869 208.443C68.0981 224.559 87.0625 236.01 108.082 241.348C129.101 246.687 151.232 245.672 171.674 238.433C192.117 231.194 209.954 218.055 222.93 200.679C233.445 186.597 240.385 170.245 243.243 153.024C244.354 146.327 250.067 141.099 256.846 141.454V141.454Z" fill="url(#paint0_linear_486_2913)"/>
<defs>
<linearGradient id="paint0_linear_486_2913" x1="141.013" y1="14.1191" x2="270.293" y2="135.503" gradientUnits="userSpaceOnUse">
<stop stop-color="#6FADFF"/>
<stop offset="1" stop-color="#2F88FF" stop-opacity="0"/>
</linearGradient>
</defs>
</svg>
