<svg width="44" height="40" viewBox="0 0 44 40" fill="none" xmlns="http://www.w3.org/2000/svg">
<path d="M11 38H33L39 17L29 22L22 8L15 22L5 17L11 38Z" fill="#2F88FF" stroke="black" stroke-width="3" stroke-linecap="round" stroke-linejoin="round"/>
<path d="M5 17C6.65685 17 8 15.6569 8 14C8 12.3431 6.65685 11 5 11C3.34315 11 2 12.3431 2 14C2 15.6569 3.34315 17 5 17Z" fill="#2F88FF" stroke="black" stroke-width="4"/>
<path d="M22 8C23.6569 8 25 6.65685 25 5C25 3.34315 23.6569 2 22 2C20.3431 2 19 3.34315 19 5C19 6.65685 20.3431 8 22 8Z" fill="#2F88FF" stroke="black" stroke-width="4"/>
<path d="M39 17C40.6569 17 42 15.6569 42 14C42 12.3431 40.6569 11 39 11C37.3431 11 36 12.3431 36 14C36 15.6569 37.3431 17 39 17Z" fill="#2F88FF" stroke="black" stroke-width="4"/>
</svg>
