<svg width="29" height="5" viewBox="0 0 29 5" fill="none" xmlns="http://www.w3.org/2000/svg">
<path d="M0.25 2.46875C0.25 1.97917 0.401042 1.56771 0.703125 1.23438C1.01562 0.890625 1.46354 0.71875 2.04688 0.71875C2.63021 0.71875 3.07292 0.890625 3.375 1.23438C3.6875 1.56771 3.84375 1.97917 3.84375 2.46875C3.84375 2.94792 3.6875 3.35417 3.375 3.6875C3.07292 4.02083 2.63021 4.1875 2.04688 4.1875C1.46354 4.1875 1.01562 4.02083 0.703125 3.6875C0.401042 3.35417 0.25 2.94792 0.25 2.46875ZM12.3875 2.46875C12.3875 1.97917 12.5385 1.56771 12.8406 1.23438C13.1531 0.890625 13.601 0.71875 14.1844 0.71875C14.7677 0.71875 15.2104 0.890625 15.5125 1.23438C15.825 1.56771 15.9812 1.97917 15.9812 2.46875C15.9812 2.94792 15.825 3.35417 15.5125 3.6875C15.2104 4.02083 14.7677 4.1875 14.1844 4.1875C13.601 4.1875 13.1531 4.02083 12.8406 3.6875C12.5385 3.35417 12.3875 2.94792 12.3875 2.46875ZM24.525 2.46875C24.525 1.97917 24.676 1.56771 24.9781 1.23438C25.2906 0.890625 25.7385 0.71875 26.3219 0.71875C26.9052 0.71875 27.3479 0.890625 27.65 1.23438C27.9625 1.56771 28.1187 1.97917 28.1187 2.46875C28.1187 2.94792 27.9625 3.35417 27.65 3.6875C27.3479 4.02083 26.9052 4.1875 26.3219 4.1875C25.7385 4.1875 25.2906 4.02083 24.9781 3.6875C24.676 3.35417 24.525 2.94792 24.525 2.46875Z" fill="#6B6B6B"/>
</svg>
