<svg width="35" height="35" viewBox="0 0 35 35" fill="none" xmlns="http://www.w3.org/2000/svg">
<path fill-rule="evenodd" clip-rule="evenodd" d="M14.7846 2.64689C15.4378 2.45094 16.1277 2.41041 16.7994 2.52852C17.4711 2.64664 18.1058 2.92013 18.653 3.32718C19.2001 3.73422 19.6446 4.26354 19.9508 4.87288C20.257 5.48223 20.4165 6.15472 20.4167 6.83669V28.1634C20.4165 28.8453 20.257 29.5178 19.9508 30.1272C19.6446 30.7365 19.2001 31.2658 18.653 31.6729C18.1058 32.0799 17.4711 32.3534 16.7994 32.4715C16.1277 32.5896 15.4378 32.5491 14.7846 32.3531L6.03457 29.7281C5.13347 29.4578 4.3435 28.9042 3.78186 28.1495C3.22021 27.3948 2.91681 26.4791 2.91666 25.5384V9.46169C2.91681 8.52091 3.22021 7.60524 3.78186 6.85052C4.3435 6.09579 5.13347 5.54221 6.03457 5.27189L14.7846 2.64689V2.64689ZM21.875 5.83335C21.875 5.44658 22.0286 5.07565 22.3021 4.80215C22.5756 4.52866 22.9465 4.37502 23.3333 4.37502H27.7083C28.8686 4.37502 29.9814 4.83595 30.8019 5.65643C31.6224 6.4769 32.0833 7.5897 32.0833 8.75002V10.2084C32.0833 10.5951 31.9297 10.9661 31.6562 11.2395C31.3827 11.513 31.0118 11.6667 30.625 11.6667C30.2382 11.6667 29.8673 11.513 29.5938 11.2395C29.3203 10.9661 29.1667 10.5951 29.1667 10.2084V8.75002C29.1667 8.36324 29.013 7.99231 28.7395 7.71882C28.466 7.44533 28.0951 7.29169 27.7083 7.29169H23.3333C22.9465 7.29169 22.5756 7.13804 22.3021 6.86455C22.0286 6.59106 21.875 6.22013 21.875 5.83335ZM30.625 23.3334C31.0118 23.3334 31.3827 23.487 31.6562 23.7605C31.9297 24.034 32.0833 24.4049 32.0833 24.7917V26.25C32.0833 27.4103 31.6224 28.5231 30.8019 29.3436C29.9814 30.1641 28.8686 30.625 27.7083 30.625H23.3333C22.9465 30.625 22.5756 30.4714 22.3021 30.1979C22.0286 29.9244 21.875 29.5535 21.875 29.1667C21.875 28.7799 22.0286 28.409 22.3021 28.1355C22.5756 27.862 22.9465 27.7084 23.3333 27.7084H27.7083C28.0951 27.7084 28.466 27.5547 28.7395 27.2812C29.013 27.0077 29.1667 26.6368 29.1667 26.25V24.7917C29.1667 24.4049 29.3203 24.034 29.5938 23.7605C29.8673 23.487 30.2382 23.3334 30.625 23.3334ZM13.125 16.0417C12.7382 16.0417 12.3673 16.1953 12.0938 16.4688C11.8203 16.7423 11.6667 17.1132 11.6667 17.5C11.6667 17.8868 11.8203 18.2577 12.0938 18.5312C12.3673 18.8047 12.7382 18.9584 13.125 18.9584H13.1264C13.5132 18.9584 13.8842 18.8047 14.1576 18.5312C14.4311 18.2577 14.5848 17.8868 14.5848 17.5C14.5848 17.1132 14.4311 16.7423 14.1576 16.4688C13.8842 16.1953 13.5132 16.0417 13.1264 16.0417H13.125Z" fill="#111111"/>
<path d="M23.3333 17.4999H30.625H23.3333ZM30.625 17.4999L27.7083 14.5833L30.625 17.4999ZM30.625 17.4999L27.7083 20.4166Z" fill="#111111"/>
<path d="M30.625 17.4999L27.7083 20.4166M23.3333 17.4999H30.625H23.3333ZM30.625 17.4999L27.7083 14.5833L30.625 17.4999Z" stroke="#545454" stroke-width="2.91667" stroke-linecap="round" stroke-linejoin="round"/>
</svg>
