<svg width="330" height="460" viewBox="10 0 340 460" fill="none" xmlns="http://www.w3.org/2000/svg">
<path d="M323.5 4.93196L326.827 15.3529L327.07 16.1141L327.838 16.3371L338.655 19.481L327.833 22.6643L327.069 22.8889L326.827 23.6471L323.5 34.0681L320.173 23.6471L319.931 22.8889L319.167 22.6643L308.345 19.481L319.163 16.3371L319.93 16.1141L320.173 15.3529L323.5 4.93196Z" fill="#ECE542" stroke="#111111" stroke-width="3"/>
<path d="M114.5 137.837L116.438 143.778L116.686 144.537L117.454 144.756L123.548 146.49L117.449 148.245L116.685 148.466L116.438 149.222L114.5 155.163L112.562 149.222L112.315 148.466L111.551 148.245L105.452 146.49L111.547 144.756L112.315 144.537L112.562 143.778L114.5 137.837Z" stroke="#111111" stroke-width="3"/>
<path d="M210.5 263.837L212.438 269.778L212.686 270.537L213.454 270.756L219.548 272.49L213.449 274.245L212.685 274.466L212.438 275.222L210.5 281.163L208.562 275.222L208.315 274.466L207.551 274.245L201.452 272.49L207.547 270.756L208.315 270.537L208.562 269.778L210.5 263.837Z" stroke="#111111" stroke-width="3"/>
<path d="M328.5 377.837L330.438 383.778L330.686 384.537L331.454 384.756L337.548 386.49L331.449 388.245L330.685 388.466L330.438 389.222L328.5 395.163L326.562 389.222L326.315 388.466L325.551 388.245L319.452 386.49L325.547 384.756L326.315 384.537L326.562 383.778L328.5 377.837Z" stroke="#111111" stroke-width="3"/>
<path d="M60.5002 323.837L62.4381 329.778L62.6857 330.537L63.4537 330.756L69.5482 332.49L63.4491 334.245L62.6847 334.466L62.4381 335.222L60.5001 341.163L58.5621 335.222L58.3154 334.466L57.551 334.245L51.4519 332.49L57.5466 330.756L58.3146 330.537L58.5622 329.778L60.5002 323.837Z" stroke="#111111" stroke-width="3"/>
<g filter="url(#filter0_d_751_2761)">
<path d="M22.4743 450.075C21.4827 449.588 20.2844 449.998 19.7977 450.989C19.3111 451.981 19.7205 453.179 20.7121 453.666L22.4743 450.075ZM319.304 105.021C318.604 104.167 317.344 104.042 316.49 104.742L302.566 116.149C301.711 116.849 301.586 118.109 302.286 118.964C302.986 119.818 304.246 119.943 305.101 119.243L317.478 109.103L327.617 121.48C328.317 122.335 329.578 122.46 330.432 121.76C331.286 121.06 331.412 119.8 330.712 118.945L319.304 105.021ZM165.252 441.203C183.214 439.684 214.463 431.537 244.899 385.824C275.239 340.253 304.757 257.378 319.747 106.487L315.767 106.091C300.803 256.717 271.38 338.832 241.569 383.607C211.853 428.239 181.743 435.794 164.915 437.217L165.252 441.203ZM94.9786 387.39C95.6347 392.414 98.179 398.448 102.042 404.557C105.925 410.696 111.225 417.045 117.549 422.703C130.16 433.984 147.108 442.737 165.252 441.203L164.915 437.217C148.269 438.625 132.365 430.589 120.216 419.721C114.161 414.304 109.103 408.238 105.423 402.418C101.723 396.568 99.4968 391.098 98.945 386.872L94.9786 387.39ZM21.5932 451.871C20.7121 453.666 20.7129 453.666 20.7138 453.667C20.7143 453.667 20.7153 453.668 20.7162 453.668C20.7181 453.669 20.7203 453.67 20.723 453.671C20.7284 453.674 20.7356 453.677 20.7445 453.682C20.7623 453.69 20.7871 453.702 20.8188 453.717C20.8821 453.747 20.973 453.79 21.0905 453.844C21.3255 453.952 21.6672 454.105 22.1087 454.292C22.9916 454.667 24.2747 455.18 25.903 455.749C29.1574 456.885 33.8027 458.245 39.3956 459.152C50.5733 460.964 65.6295 460.979 80.9145 453.675L79.1899 450.066C64.856 456.915 50.6828 456.93 40.0357 455.204C34.7162 454.341 30.3003 453.048 27.2216 451.973C25.6833 451.435 24.4819 450.954 23.6718 450.61C23.2669 450.438 22.9601 450.301 22.7581 450.208C22.6572 450.162 22.5825 450.127 22.5349 450.104C22.5111 450.093 22.4941 450.085 22.4839 450.08C22.4789 450.077 22.4755 450.076 22.4739 450.075C22.4731 450.075 22.4727 450.074 22.4728 450.074C22.4728 450.074 22.4732 450.075 22.4732 450.075C22.4737 450.075 22.4743 450.075 21.5932 451.871ZM80.9145 453.675C96.3933 446.279 105.976 431.222 111.012 416.407C113.538 408.975 114.95 401.525 115.385 394.981C115.817 388.483 115.298 382.706 113.814 378.705L110.064 380.096C111.268 383.343 111.809 388.478 111.394 394.716C110.982 400.908 109.64 408.015 107.225 415.12C102.378 429.378 93.3298 443.309 79.1899 450.066L80.9145 453.675ZM113.814 378.705C112.387 374.859 110.444 372.002 108.2 370.299C105.918 368.567 103.235 367.996 100.747 369.051C98.341 370.072 96.5989 372.414 95.6218 375.47C94.6371 378.551 94.3485 382.564 94.9786 387.39L98.945 386.872C98.3672 382.447 98.6747 379.057 99.4318 376.688C100.196 374.296 101.342 373.144 102.31 372.734C103.196 372.358 104.375 372.417 105.782 373.485C107.228 374.583 108.803 376.696 110.064 380.096L113.814 378.705Z" fill="black"/>
</g>
<defs>
<filter id="filter0_d_751_2761" x="17.5928" y="104.289" width="319.572" height="363.871" filterUnits="userSpaceOnUse" color-interpolation-filters="sRGB">
<feFlood flood-opacity="0" result="BackgroundImageFix"/>
<feColorMatrix in="SourceAlpha" type="matrix" values="0 0 0 0 0 0 0 0 0 0 0 0 0 0 0 0 0 0 127 0" result="hardAlpha"/>
<feOffset dx="2" dy="4"/>
<feGaussianBlur stdDeviation="2"/>
<feComposite in2="hardAlpha" operator="out"/>
<feColorMatrix type="matrix" values="0 0 0 0 0.184314 0 0 0 0 0.501961 0 0 0 0 0.929412 0 0 0 0.25 0"/>
<feBlend mode="normal" in2="BackgroundImageFix" result="effect1_dropShadow_751_2761"/>
<feBlend mode="normal" in="SourceGraphic" in2="effect1_dropShadow_751_2761" result="shape"/>
</filter>
</defs>
</svg>
