<svg width="275" height="260" viewBox="0 0 275 260" fill="none" xmlns="http://www.w3.org/2000/svg">
<path d="M272.334 125.56H155.491C154.888 125.559 154.311 125.32 153.885 124.894C153.459 124.468 153.219 123.89 153.219 123.288V2.27209C153.219 1.6697 153.459 1.09218 153.885 0.666224C154.311 0.240269 154.888 0.000673055 155.491 0H272.334C272.936 0.000672009 273.514 0.240269 273.94 0.666224C274.366 1.09218 274.605 1.6697 274.606 2.27209V123.288C274.605 123.89 274.366 124.468 273.94 124.894C273.514 125.32 272.936 125.559 272.334 125.56ZM155.491 0.792177C155.098 0.792626 154.722 0.948689 154.445 1.22613C154.167 1.50357 154.011 1.87973 154.011 2.27209V123.288C154.011 123.68 154.167 124.056 154.445 124.334C154.722 124.611 155.098 124.767 155.491 124.768H272.334C272.726 124.767 273.102 124.611 273.38 124.334C273.657 124.056 273.813 123.68 273.814 123.288V2.27209C273.813 1.87973 273.657 1.50357 273.38 1.22613C273.102 0.948689 272.726 0.792626 272.334 0.792177H155.491Z" fill="#3F3D56"/>
<path d="M235.935 50.8601C238.546 55.6816 239.502 61.2267 238.656 66.6441C237.811 72.0615 235.211 77.0517 231.255 80.8485C227.3 84.6454 222.207 87.039 216.76 87.662C211.312 88.2849 205.811 87.1028 201.1 84.2969C196.39 81.4911 192.73 77.2168 190.684 72.1301C188.637 67.0434 188.317 61.4256 189.771 56.1392C191.226 50.8528 194.376 46.1899 198.737 42.8665C203.097 39.543 208.429 37.7428 213.912 37.7421C214.11 37.7421 214.308 37.745 214.506 37.7496L214.241 27.053C214.131 27.052 214.022 27.0488 213.912 27.0488C206.023 27.0511 198.356 29.6648 192.109 34.4821C185.862 39.2994 181.385 46.0492 179.377 53.6783C177.37 61.3074 177.944 69.3866 181.01 76.655C184.077 83.9234 189.464 89.9723 196.329 93.8576C203.195 97.7429 211.154 99.2461 218.964 98.1326C226.774 97.0191 233.995 93.3516 239.502 87.7023C245.008 82.0531 248.489 74.7399 249.402 66.9041C250.316 59.0682 248.609 51.1505 244.549 44.3865L235.935 50.8601Z" fill="#2F80ED"/>
<path d="M235.936 50.8598L244.549 44.3863C241.404 39.1443 236.965 34.7978 231.658 31.7628C226.351 28.7278 220.354 27.106 214.241 27.0527L214.506 37.7493C218.916 37.8526 223.221 39.1196 226.984 41.4219C230.748 43.7242 233.836 46.9801 235.936 50.8598Z" fill="#E6E6E6"/>
<path d="M232.1 93.4498L231.658 93.8877L244.206 106.554L244.648 106.116L232.1 93.4498Z" fill="#3F3D56"/>
<path d="M240.156 15.9189L231.435 31.4688L231.977 31.7732L240.699 16.2233L240.156 15.9189Z" fill="#3F3D56"/>
<path d="M253.816 111.228H235.299C234.97 111.228 234.655 111.097 234.422 110.864C234.189 110.631 234.058 110.316 234.058 109.987V107.379C234.058 107.05 234.189 106.734 234.422 106.502C234.655 106.269 234.97 106.138 235.299 106.138H253.816C254.146 106.138 254.461 106.269 254.694 106.502C254.927 106.734 255.058 107.05 255.058 107.379V109.987C255.058 110.316 254.927 110.631 254.694 110.864C254.461 111.097 254.146 111.228 253.816 111.228Z" fill="#2F80ED"/>
<path d="M249.121 16.2927H230.604C230.274 16.2923 229.959 16.1614 229.726 15.9287C229.494 15.696 229.363 15.3805 229.362 15.0515V12.4434C229.363 12.1143 229.494 11.7988 229.726 11.5661C229.959 11.3334 230.274 11.2025 230.604 11.2021H249.121C249.45 11.2025 249.766 11.3334 249.998 11.5661C250.231 11.7988 250.362 12.1143 250.362 12.4434V15.0515C250.362 15.3805 250.231 15.696 249.998 15.9287C249.766 16.1614 249.45 16.2923 249.121 16.2927Z" fill="#E6E6E6"/>
<path d="M134.559 95.3418H2.62948C2.0561 95.3413 1.5064 95.1585 1.10096 94.8336C0.695516 94.5086 0.467447 94.0681 0.466797 93.6086V51.1287C0.467448 50.6692 0.695516 50.2286 1.10096 49.9037C1.5064 49.5788 2.0561 49.396 2.62948 49.3955H134.559C135.132 49.396 135.682 49.5788 136.087 49.9037C136.493 50.2287 136.721 50.6692 136.721 51.1287V93.6086C136.721 94.0681 136.493 94.5086 136.087 94.8335C135.682 95.1585 135.132 95.3412 134.559 95.3418ZM2.62948 50.0298C2.26594 50.0301 1.9174 50.146 1.66034 50.352C1.40327 50.558 1.25868 50.8373 1.25829 51.1287V93.6086C1.25868 93.8999 1.40327 94.1793 1.66034 94.3853C1.9174 94.5913 2.26594 94.7072 2.62948 94.7075H134.559C134.922 94.7071 135.271 94.5913 135.528 94.3853C135.785 94.1792 135.929 93.8999 135.93 93.6086V51.1287C135.929 50.8374 135.785 50.558 135.528 50.352C135.271 50.146 134.922 50.0301 134.559 50.0298H2.62948Z" fill="#3F3D56"/>
<path d="M32.2086 81.2324H19.4151C19.0882 81.2318 18.7721 81.1152 18.5231 80.9033C18.2742 80.6915 18.1085 80.3981 18.0556 80.0755C17.2211 74.6554 17.2211 69.1395 18.0556 63.7194C18.1085 63.3968 18.2742 63.1035 18.5231 62.8916C18.7721 62.6797 19.0882 62.5631 19.4151 62.5625H32.2086C32.4159 62.5619 32.6206 62.6085 32.8072 62.6989C32.9937 62.7893 33.1572 62.921 33.2852 63.0841C33.4159 63.2495 33.5072 63.4426 33.5521 63.6486C33.597 63.8546 33.5944 64.0681 33.5443 64.273C32.3475 69.2855 32.3474 74.5094 33.5442 79.522C33.5943 79.7268 33.597 79.9403 33.5521 80.1463C33.5072 80.3524 33.4159 80.5454 33.2852 80.7108C33.1572 80.8739 32.9937 81.0057 32.8072 81.0961C32.6206 81.1864 32.4159 81.2331 32.2086 81.2324Z" fill="#2F80ED"/>
<path d="M75.4745 81.2324H62.681C62.4736 81.2331 62.2689 81.1864 62.0823 81.096C61.8958 81.0056 61.7323 80.8738 61.6044 80.7106C61.4736 80.5453 61.3823 80.3522 61.3375 80.1463C61.2926 79.9403 61.2953 79.7267 61.3454 79.522C62.5421 74.5094 62.5421 69.2855 61.3453 64.273C61.2953 64.0682 61.2926 63.8547 61.3374 63.6487C61.3823 63.4427 61.4736 63.2497 61.6044 63.0843C61.7323 62.9212 61.8958 62.7894 62.0823 62.6989C62.2689 62.6085 62.4736 62.5618 62.6809 62.5625H75.4745C75.8014 62.5631 76.1175 62.6797 76.3664 62.8916C76.6154 63.1035 76.7811 63.3968 76.8339 63.7194C77.6685 69.1395 77.6685 74.6554 76.8339 80.0755C76.7811 80.3981 76.6154 80.6914 76.3664 80.9033C76.1175 81.1152 75.8014 81.2318 75.4745 81.2324Z" fill="#2F80ED"/>
<path d="M117.622 81.2324H104.828C104.621 81.2331 104.416 81.1864 104.23 81.096C104.043 81.0056 103.88 80.8738 103.752 80.7106C103.621 80.5453 103.53 80.3522 103.485 80.1463C103.44 79.9403 103.443 79.7267 103.493 79.522C104.69 74.5094 104.69 69.2855 103.493 64.273C103.443 64.0682 103.44 63.8547 103.485 63.6487C103.53 63.4427 103.621 63.2497 103.752 63.0843C103.88 62.9212 104.043 62.7894 104.23 62.6989C104.416 62.6085 104.621 62.5618 104.828 62.5625H117.622C117.949 62.5632 118.265 62.6798 118.514 62.8917C118.763 63.1035 118.929 63.3969 118.982 63.7194C119.816 69.1395 119.816 74.6554 118.982 80.0755C118.929 80.3981 118.763 80.6914 118.514 80.9033C118.265 81.1151 117.949 81.2318 117.622 81.2324Z" fill="#FF6584"/>
<path d="M125.928 143.427H125.136V112.911H182.433V113.703H125.928V143.427Z" fill="#3F3D56"/>
<path d="M191.22 122.007C197.297 122.007 202.223 117.08 202.223 111.003C202.223 104.926 197.297 100 191.22 100C185.143 100 180.217 104.926 180.217 111.003C180.217 117.08 185.143 122.007 191.22 122.007Z" fill="#2F80ED"/>
<path d="M189.718 116.731C189.528 116.731 189.34 116.687 189.171 116.602C189.001 116.517 188.853 116.393 188.739 116.241L185.737 112.239C185.641 112.11 185.57 111.964 185.53 111.808C185.491 111.652 185.482 111.49 185.504 111.331C185.527 111.172 185.581 111.019 185.663 110.881C185.745 110.742 185.853 110.622 185.982 110.525C186.11 110.429 186.257 110.359 186.412 110.319C186.568 110.279 186.73 110.27 186.889 110.293C187.048 110.315 187.201 110.369 187.34 110.451C187.478 110.533 187.599 110.641 187.695 110.77L189.659 113.388L194.703 105.822C194.792 105.688 194.907 105.573 195.041 105.484C195.174 105.394 195.324 105.332 195.482 105.3C195.639 105.269 195.802 105.268 195.96 105.3C196.117 105.331 196.268 105.393 196.401 105.482C196.535 105.571 196.65 105.686 196.74 105.82C196.829 105.953 196.891 106.103 196.923 106.261C196.954 106.419 196.954 106.581 196.923 106.739C196.892 106.896 196.83 107.046 196.74 107.18L190.736 116.186C190.628 116.349 190.482 116.483 190.31 116.578C190.139 116.673 189.948 116.725 189.752 116.731C189.741 116.731 189.729 116.731 189.718 116.731Z" fill="white"/>
<path d="M87.1115 217.513H86.3193V248.029H143.616V247.236H87.1115V217.513Z" fill="#3F3D56"/>
<path d="M152.403 259.054C158.48 259.054 163.406 254.127 163.406 248.05C163.406 241.973 158.48 237.047 152.403 237.047C146.326 237.047 141.399 241.973 141.399 248.05C141.399 254.127 146.326 259.054 152.403 259.054Z" fill="#2F80ED"/>
<path d="M150.902 253.777C150.712 253.777 150.525 253.733 150.355 253.648C150.185 253.563 150.037 253.439 149.923 253.287L146.922 249.285C146.825 249.156 146.755 249.01 146.715 248.854C146.675 248.698 146.666 248.536 146.689 248.377C146.712 248.218 146.766 248.065 146.848 247.927C146.929 247.788 147.038 247.668 147.166 247.571C147.295 247.475 147.441 247.404 147.597 247.365C147.753 247.325 147.915 247.316 148.074 247.339C148.233 247.361 148.386 247.415 148.524 247.497C148.663 247.579 148.783 247.687 148.88 247.816L150.844 250.434L155.888 242.868C155.977 242.734 156.092 242.619 156.225 242.53C156.359 242.44 156.509 242.378 156.666 242.346C156.824 242.315 156.986 242.314 157.144 242.345C157.302 242.377 157.452 242.439 157.586 242.528C157.72 242.617 157.835 242.732 157.924 242.865C158.014 242.999 158.076 243.149 158.107 243.307C158.139 243.464 158.139 243.627 158.108 243.785C158.076 243.942 158.014 244.092 157.925 244.226L151.921 253.232C151.812 253.395 151.666 253.529 151.495 253.624C151.324 253.719 151.132 253.771 150.937 253.776C150.925 253.777 150.914 253.777 150.902 253.777Z" fill="white"/>
<path d="M55.1245 160.882C55.1179 154.928 57.3927 149.198 61.4811 144.87L47.4503 125.558C46.8727 124.762 46.1305 124.101 45.2741 123.618C44.4178 123.135 43.4674 122.842 42.4878 122.76C41.5081 122.677 40.5222 122.806 39.597 123.139C38.6719 123.472 37.8294 124 37.1268 124.688C32.3205 129.373 28.5047 134.977 25.9062 141.165C23.3077 147.354 21.9794 154.002 22.0002 160.714C22.0003 163.249 22.1892 165.78 22.5656 168.287C22.7132 169.278 23.0752 170.225 23.6264 171.061C24.1776 171.898 24.9047 172.604 25.7569 173.131C26.5995 173.653 27.5458 173.984 28.5297 174.102C29.5136 174.221 30.5114 174.123 31.4536 173.816L55.6805 165.944C55.3118 164.282 55.1254 162.585 55.1245 160.882Z" fill="#F2F2F2"/>
<path d="M56.4132 168.534L31.226 176.718C30.2938 177.019 29.4373 177.518 28.7145 178.179C27.9917 178.84 27.4195 179.649 27.0367 180.551C26.6539 181.452 26.4693 182.426 26.4956 183.405C26.5219 184.385 26.7584 185.347 27.1891 186.227C30.7759 193.504 36.0634 199.809 42.6038 204.61C49.1442 209.41 56.7449 212.564 64.7626 213.804C65.739 213.954 66.7364 213.891 67.6862 213.619C68.6361 213.348 69.5159 212.874 70.2654 212.23C71.014 211.588 71.6147 210.792 72.0264 209.896C72.4382 209 72.6511 208.026 72.6507 207.04V183.515C68.9203 182.547 65.4865 180.673 62.654 178.06C59.8214 175.447 57.6778 172.175 56.4132 168.534Z" fill="#E6E6E6"/>
<path d="M132.157 183.232C131.732 182.222 131.094 181.316 130.287 180.575C129.481 179.833 128.524 179.275 127.482 178.936L100.012 170.011C98.408 173.782 95.8418 177.066 92.5698 179.533C89.2978 182 85.4349 183.564 81.3682 184.069V212.69C81.3687 213.788 81.6068 214.874 82.066 215.872C82.5252 216.87 83.1947 217.757 84.0287 218.472C84.8627 219.187 85.8414 219.714 86.8978 220.015C87.9542 220.317 89.0634 220.387 90.1492 220.22C99.0743 218.839 107.535 215.328 114.816 209.985C122.097 204.641 127.983 197.622 131.976 189.521C132.456 188.547 132.72 187.482 132.752 186.396C132.783 185.311 132.58 184.232 132.157 183.232Z" fill="#3F3D56"/>
<path d="M125.333 117.584C124.551 116.818 123.613 116.23 122.583 115.86C121.553 115.489 120.456 115.345 119.365 115.437C118.275 115.529 117.217 115.855 116.264 116.392C115.31 116.93 114.484 117.667 113.841 118.552L95.0605 144.402C97.2211 146.568 98.9339 149.138 100.101 151.965C101.268 154.793 101.867 157.823 101.863 160.882C101.863 161.452 101.836 162.014 101.796 162.573L131.649 172.273C132.704 172.613 133.821 172.72 134.922 172.585C136.023 172.45 137.081 172.076 138.023 171.49C138.965 170.904 139.768 170.12 140.376 169.192C140.983 168.264 141.382 167.215 141.543 166.118C141.962 163.327 142.172 160.509 142.172 157.688C142.195 150.216 140.716 142.816 137.824 135.926C134.931 129.037 130.683 122.8 125.333 117.584Z" fill="#2F80ED"/>
<path d="M78.4937 137.512C82.5144 137.508 86.4675 138.546 89.9672 140.525L101.43 124.748C102.014 123.944 102.417 123.024 102.611 122.049C102.805 121.075 102.785 120.07 102.553 119.104C102.328 118.157 101.9 117.269 101.299 116.503C100.698 115.737 99.9379 115.11 99.071 114.666C91.9939 111.067 84.1686 109.185 76.2288 109.174C68.2891 109.162 60.4583 111.021 53.3708 114.6C52.4769 115.051 51.6919 115.691 51.0699 116.475C50.448 117.26 50.004 118.17 49.7688 119.143C49.5369 120.102 49.5163 121.101 49.7084 122.069C49.9006 123.037 50.3009 123.951 50.8817 124.749L63.8853 142.647C68.0256 139.318 73.1808 137.506 78.4937 137.512Z" fill="#E6E6E6"/>
</svg>
