<svg width="255" height="274" viewBox="0 0 255 274" fill="none" xmlns="http://www.w3.org/2000/svg">
<g clip-path="url(#clip0_789_3645)">
<path d="M170.758 238.25C168.103 234.527 164.508 231.803 159.989 230.783C156.049 229.894 151.997 230.046 147.991 230.077L97.3432 230.468C93.0055 230.501 88.8465 234.264 89.0481 238.774C89.248 243.245 92.6936 247.115 97.3432 247.079C112.18 246.965 127.016 246.85 141.852 246.736C145.35 246.709 148.85 246.646 152.348 246.657C153.133 246.66 153.916 246.701 154.7 246.71C154.89 246.712 155.028 246.711 155.125 246.706C155.149 246.714 155.169 246.721 155.201 246.729C155.61 246.842 156.03 246.919 156.442 247.026C156.298 247.031 156.709 247.288 156.916 247.375C156.944 247.431 157.005 247.53 157.106 247.684C157.247 247.948 157.664 248.752 157.681 248.727C158.308 250.315 158.826 251.944 159.23 253.603C160.194 257.261 160.406 258.026 160.544 261.458C160.72 265.794 164.234 269.97 168.84 269.764C173.184 269.569 177.323 266.108 177.135 261.458C176.818 253.623 175.444 244.821 170.758 238.25Z" fill="#E6E6E6"/>
<path d="M100.32 256.993C99.3688 251.22 98.4358 245.444 97.466 239.675C96.4819 233.823 94.4722 228.463 89.9237 224.622C88.7083 223.596 87.4481 222.638 86.1827 221.683C85.7376 221.347 85.2934 221.011 84.8537 220.668C84.8273 220.647 84.8106 220.634 84.7878 220.616C84.7395 220.575 84.6815 220.525 84.6035 220.459C82.7077 218.853 80.8759 217.175 79.131 215.391C77.5815 213.807 76.0996 212.155 74.6855 210.436C74.3321 210.007 73.9832 209.574 73.6389 209.136C73.5797 209.061 73.2607 208.648 73.0506 208.379C72.8552 208.11 72.498 207.623 72.438 207.538C72.0358 206.968 71.6407 206.393 71.2528 205.813C68.6107 201.85 66.323 197.661 64.416 193.295C64.2269 192.862 64.0423 192.426 63.8622 191.988C63.8138 191.854 63.7513 191.683 63.6682 191.454C63.284 190.396 62.9004 189.339 62.5491 188.268C61.8025 185.994 61.1607 183.687 60.6236 181.346C60.3581 180.189 60.119 179.028 59.9065 177.86C59.7969 177.259 59.6943 176.657 59.5989 176.054C59.5832 175.954 59.49 175.304 59.4351 174.936C59.3946 174.567 59.3192 173.913 59.309 173.812C59.2483 173.204 59.1944 172.595 59.1473 171.986C59.0412 170.616 58.9695 169.243 58.9321 167.868C58.8684 165.424 58.9121 162.98 59.0633 160.537C59.1493 159.164 59.2719 157.795 59.4227 156.428C59.4319 156.344 59.4389 156.277 59.4455 156.217C59.4546 156.156 59.4653 156.087 59.4779 156.001C59.5896 155.245 59.707 154.491 59.8384 153.739C60.336 150.884 60.9831 148.057 61.777 145.271C62.1529 143.953 62.5613 142.645 63.002 141.349C63.1984 140.773 63.4011 140.2 63.6101 139.628C63.5964 139.665 64.2229 138.063 64.2313 138.009C66.7172 132.128 70.7832 126.767 70.7888 120.086C70.7926 115.563 66.9708 111.23 62.4937 111.439C60.2615 111.523 58.1491 112.472 56.6016 114.085C55.0542 115.698 54.1927 117.849 54.1985 120.086C54.1985 120.187 54.198 120.274 54.1978 120.358C54.156 120.499 54.1211 120.617 54.0897 120.72C53.6049 121.775 53.011 122.778 52.4789 123.806C51.0218 126.622 49.7781 129.529 48.5966 132.48C46.6625 137.284 45.1821 142.26 44.1747 147.341C41.985 158.474 41.815 169.911 43.6729 181.104C46.8892 200.733 57.4955 219.523 72.2408 232.153C73.5205 233.249 74.8313 234.308 76.1545 235.346C76.7021 235.775 77.2542 236.197 77.8091 236.616C78.0713 236.814 79.1578 237.672 78.6799 237.256C79.7077 238.134 80.1403 238.576 80.4043 239.223C80.4426 239.372 80.4947 239.575 80.5653 239.852C80.7514 240.581 80.9281 241.309 81.0749 242.049C82.3584 248.512 83.2505 255.084 84.3225 261.59C85.0595 266.06 90.5553 268.969 94.5267 267.629C99.1491 266.07 101.11 261.782 100.32 256.993Z" fill="#E6E6E6"/>
<path d="M171.597 273.757C168.113 273.766 164.768 272.391 162.295 269.934C159.823 267.477 158.424 264.138 158.407 260.649V251.175C148.5 252.285 114.576 252.028 104.852 250.464V260.27C104.826 263.756 103.425 267.09 100.954 269.545C98.4835 272 95.1436 273.378 91.6626 273.378C88.1816 273.378 84.8418 272 82.3711 269.545C79.9005 267.09 78.4994 263.756 78.4733 260.27V241.016C65.3025 233.69 54.3228 222.977 46.6673 209.983C39.0119 196.99 34.9579 182.186 34.9238 167.1C34.9238 141.233 46.6319 117.103 67.0461 100.896C80.3192 90.3235 96.4459 83.965 113.355 82.6375C115.65 82.4573 117.959 82.3661 120.219 82.3661C128.178 82.3661 164.089 83.5972 173.099 86.1927L193.644 65.7804C193.946 65.4762 194.332 65.269 194.752 65.1852C195.172 65.1014 195.607 65.1447 196.003 65.3097C196.401 65.4684 196.742 65.744 196.981 66.1004C197.221 66.4568 197.346 66.8772 197.343 67.3066V70.552L201.343 66.5849C201.645 66.2805 202.03 66.0729 202.45 65.989C202.87 65.905 203.305 65.9483 203.7 66.1135C204.099 66.2721 204.44 66.5478 204.68 66.9043C204.919 67.2608 205.045 67.6815 205.042 68.1111V104.379C215.351 113.684 223.208 125.393 227.917 138.466C232.627 151.54 234.042 165.574 232.039 179.327C230.036 193.079 224.675 206.124 216.433 217.306C208.19 228.488 197.32 237.461 184.786 243.431V260.649C184.769 264.138 183.371 267.477 180.898 269.934C178.425 272.391 175.08 273.766 171.597 273.757V273.757ZM159.444 249.998V260.649C159.47 263.859 160.762 266.929 163.038 269.189C165.315 271.45 168.391 272.718 171.597 272.718C174.802 272.718 177.879 271.45 180.155 269.189C182.431 266.929 183.723 263.859 183.749 260.649V242.775L184.045 242.634C198.109 235.952 210.049 225.498 218.538 212.432C229.355 195.759 233.853 175.759 231.219 156.052C228.585 136.346 218.992 118.235 204.177 104.997L204.005 104.842V68.1111C204.008 67.8879 203.944 67.6689 203.819 67.4837C203.695 67.2985 203.517 67.1559 203.309 67.0751C203.103 66.9867 202.874 66.9628 202.654 67.0066C202.433 67.0505 202.232 67.16 202.074 67.3207L196.306 73.0416V67.3065C196.309 67.0834 196.245 66.8644 196.12 66.6792C195.996 66.494 195.818 66.3514 195.61 66.2706C195.403 66.1823 195.174 66.1587 194.954 66.2028C194.733 66.247 194.531 66.3568 194.373 66.518L173.389 87.3673L173.09 87.2738C164.714 84.6488 128.238 83.4043 120.218 83.4043C117.986 83.4043 115.704 83.4945 113.436 83.6727C96.7328 84.9839 80.802 91.2652 67.6904 101.71C47.5257 117.718 35.9606 141.552 35.9606 167.1C35.9951 182.053 40.0274 196.723 47.6386 209.588C55.2499 222.453 66.1624 233.042 79.2427 240.256L79.5102 240.404V260.271C79.5369 263.48 80.829 266.549 83.1051 268.809C85.3813 271.069 88.457 272.337 91.6626 272.337C94.8682 272.337 97.944 271.069 100.22 268.809C102.496 266.549 103.788 263.48 103.815 260.271V249.221L104.429 249.336C113.168 250.983 149.965 251.242 158.858 250.074L159.444 249.998Z" fill="#3F3D56"/>
<path d="M139.291 0C129.86 0.00365173 120.801 3.68163 114.03 10.2555C107.259 16.8293 103.309 25.7831 103.015 35.2217C103.005 35.5902 103 35.964 103 36.3378C103 43.5247 105.128 50.5502 109.116 56.5259C113.104 62.5016 118.772 67.1591 125.403 69.9094C132.034 72.6598 139.331 73.3794 146.371 71.9773C153.411 70.5752 159.878 67.1143 164.953 62.0324C170.028 56.9505 173.485 50.4757 174.885 43.4269C176.285 36.3781 175.567 29.0718 172.82 22.4319C170.073 15.792 165.422 10.1169 159.454 6.12402C153.485 2.13118 146.469 0 139.291 0V0ZM139.291 71.6373C129.944 71.6275 120.983 67.9053 114.373 61.2875C107.764 54.6697 104.047 45.6968 104.037 36.3378C104.037 35.855 104.047 35.3774 104.068 34.905C104.349 27.9903 106.653 21.3108 110.695 15.6971C114.737 10.0833 120.337 5.78296 126.8 3.33072C133.263 0.878491 140.304 0.382572 147.046 1.90464C153.788 3.42672 159.935 6.89962 164.722 11.8915C169.508 16.8834 172.724 23.1741 173.969 29.9813C175.214 36.7885 174.433 43.8119 171.723 50.1782C169.013 56.5445 164.494 61.9728 158.728 65.7881C152.962 69.6034 146.203 71.6375 139.291 71.6373V71.6373Z" fill="#3F3D56"/>
<path d="M148.374 38.3725C147.633 37.3964 146.657 36.6234 145.538 36.1248C144.158 35.5424 142.733 35.0736 141.277 34.7232V26.3863C143.515 26.7242 145.614 27.6826 147.337 29.1531L149.028 25.5453C148.055 24.6782 146.939 23.9878 145.73 23.5052C144.39 22.9617 142.982 22.6003 141.546 22.4306V18.2051H137.632V22.4722C136.121 22.6422 134.663 23.1323 133.355 23.9101C132.174 24.6102 131.179 25.5862 130.457 26.7548C129.767 27.8953 129.41 29.2061 129.425 30.5392C129.358 31.9838 129.776 33.4093 130.612 34.5882C131.382 35.6089 132.399 36.4164 133.567 36.9346C134.969 37.5342 136.419 38.0152 137.902 38.3725V46.3616C135.26 46.1621 132.743 45.1566 130.69 43.4806L129 47.0936C130.148 48.0439 131.453 48.7853 132.857 49.2842C134.395 49.8354 136.002 50.1708 137.632 50.2809V54.4702H141.546V50.2031C143.72 49.9652 145.759 49.0291 147.358 47.5348C148.062 46.8587 148.618 46.0436 148.991 45.1411C149.364 44.2386 149.546 43.2684 149.525 42.2918C149.59 40.8932 149.185 39.5132 148.374 38.3725V38.3725ZM137.902 33.8407C136.948 33.5512 136.062 33.0747 135.294 32.4391C134.99 32.168 134.749 31.8329 134.589 31.4577C134.43 31.0826 134.355 30.6767 134.371 30.2692C134.343 29.3446 134.682 28.4466 135.315 27.7723C136.016 27.0649 136.92 26.5947 137.902 26.4278V33.8407ZM143.734 44.8874C143.073 45.5666 142.212 46.0159 141.277 46.1696V39.2965C142.17 39.5366 143.006 39.9551 143.734 40.5268C144.01 40.7628 144.229 41.0581 144.376 41.3906C144.522 41.7231 144.592 42.0844 144.579 42.4476C144.615 43.3385 144.313 44.2101 143.734 44.8874V44.8874Z" fill="#2F80ED"/>
<path d="M38.5012 141.151C31.2676 140.081 24.3495 137.462 18.2185 133.472C15.181 131.497 12.3691 129.195 9.83313 126.605C7.33015 124.049 4.93564 121.144 3.69588 117.739C2.50306 114.59 2.56454 111.102 3.86761 107.996C5.1529 104.91 7.6081 102.459 10.6949 101.183C13.8002 99.9426 17.552 99.8099 20.5741 101.168C22.0142 101.8 23.2604 102.804 24.1847 104.078C24.6144 104.665 24.9325 105.326 25.1233 106.029C25.3003 106.665 25.3164 107.336 25.1701 107.98C24.9929 108.623 24.6804 109.221 24.2535 109.734C23.8267 110.246 23.2953 110.661 22.6951 110.951C21.3742 111.63 19.943 112.067 18.4687 112.242C16.9859 112.444 14.8558 112.628 13.6637 111.437C13.4183 111.201 13.2253 110.916 13.0973 110.6C13.0077 110.359 12.977 110.099 13.0079 109.844C12.9905 109.956 13.0798 109.598 13.0747 109.613C13.0559 109.666 12.9742 109.794 13.0903 109.596C13.1265 109.531 13.1669 109.468 13.2111 109.408C13.1717 109.459 13.0852 109.544 13.2397 109.398C13.3674 109.258 13.5316 109.157 13.7137 109.105C13.7855 109.084 13.8583 109.067 13.9303 109.048C14.1132 108.998 13.748 109.05 13.9351 109.044C14.0073 109.042 14.0803 109.044 14.1523 109.041C14.3358 109.032 13.9712 108.991 14.1471 109.035C14.2154 109.052 14.2831 109.069 14.3504 109.09C14.4966 109.136 14.2468 108.983 14.3459 109.098C14.462 109.232 14.224 108.967 14.356 109.097C14.4216 109.162 14.4836 109.23 14.5414 109.302C14.7703 109.528 15.079 109.655 15.4007 109.655C15.7224 109.655 16.0311 109.528 16.26 109.302C16.4812 109.07 16.6046 108.762 16.6046 108.441C16.6046 108.121 16.4812 107.812 16.26 107.581C15.0617 106.093 12.6947 106.461 11.4824 107.718C9.93642 109.321 10.5486 111.862 12.0525 113.261C13.7549 114.845 16.166 114.955 18.3559 114.689C20.2066 114.512 22.0102 114.001 23.6799 113.183C25.339 112.366 26.6366 110.963 27.3215 109.244C27.6307 108.326 27.7417 107.353 27.6473 106.39C27.5529 105.426 27.2551 104.493 26.7738 103.653C24.8403 100.014 20.8368 98.1478 16.8796 97.8246C14.8422 97.6648 12.7934 97.9112 10.8517 98.5494C8.91007 99.1876 7.1141 100.205 5.56773 101.543C2.58718 104.23 0.751822 107.961 0.441209 111.964C0.0957897 116.115 1.70419 120.146 4.04919 123.496C6.50414 126.899 9.43368 129.933 12.7484 132.504C19.2287 137.684 26.83 141.274 34.9441 142.985C35.9092 143.185 36.8796 143.356 37.8551 143.498C38.1655 143.573 38.4929 143.527 38.7706 143.369C39.0483 143.211 39.2555 142.954 39.35 142.648C39.4333 142.337 39.3909 142.005 39.2321 141.725C39.0733 141.445 38.8107 141.239 38.5012 141.151L38.5012 141.151Z" fill="#3F3D56"/>
<path d="M154.315 88.2657C143.717 88.116 133.152 88.3853 122.62 89.0736C119.021 89.309 115.906 90.5829 115.906 92.7241C115.906 94.5142 118.996 96.6115 122.62 96.3744C133.146 95.6862 143.711 95.4169 154.315 95.5665C162.959 95.6887 162.954 88.3878 154.315 88.2657Z" fill="#CCCCCC"/>
<path d="M138.65 95.2046C137.505 95.2046 110.6 95.1618 110.6 91.4406C110.6 87.7196 137.505 87.6768 138.65 87.6768C139.796 87.6768 166.701 87.7196 166.701 91.4406C166.701 95.1618 139.796 95.2046 138.65 95.2046ZM111.652 91.4406C112.388 92.5688 122.278 94.1664 138.65 94.1664C155.023 94.1664 164.913 92.5688 165.649 91.4406C164.913 90.3126 155.023 88.715 138.65 88.715C122.278 88.715 112.388 90.3126 111.652 91.4406V91.4406Z" fill="#3F3D56"/>
<path d="M214.144 135.172H194.737V138.78H214.144V135.172Z" fill="#3F3D56"/>
</g>
<defs>
<clipPath id="clip0_789_3645">
<rect width="233" height="274" fill="white"/>
</clipPath>
</defs>
</svg>
