<svg width="308" height="264" viewBox="0 0 308 264" fill="none" xmlns="http://www.w3.org/2000/svg">
<path d="M28.8037 145.418V12.9474C28.8037 5.79663 34.6007 -0.000335693 41.7507 -0.000335693H272.429C279.58 -0.000335693 285.377 5.79663 285.377 12.9474V145.418C285.377 152.569 279.58 158.366 272.429 158.366H41.7507C34.6007 158.366 28.8037 152.569 28.8037 145.418Z" fill="#C3DBE6"/>
<path d="M42.4457 155.594C36.4435 155.594 31.5781 150.728 31.5781 144.726V13.1701C31.5781 7.42789 36.2335 2.77257 41.9757 2.77257H272.208C277.95 2.77257 282.606 7.42789 282.606 13.1701V144.726C282.606 150.728 277.74 155.594 271.738 155.594H42.4457Z" fill="white"/>
<path d="M41.4327 2.77108H272.207C277.949 2.77108 282.605 7.4264 282.605 13.1686V21.54H31.0352V13.1686C31.0352 7.4264 35.6905 2.77108 41.4327 2.77108Z" fill="#A2C5D2"/>
<path d="M47.577 12.1573C47.577 13.4826 46.5033 14.5557 45.1786 14.5557C43.8547 14.5557 42.7803 13.4826 42.7803 12.1573C42.7803 10.8333 43.8547 9.75962 45.1786 9.75962C46.5033 9.75962 47.577 10.8333 47.577 12.1573Z" fill="#DCECF0"/>
<path d="M61.8651 12.1573C61.8651 13.4826 60.7907 14.5557 59.4667 14.5557C58.1421 14.5557 57.0684 13.4826 57.0684 12.1573C57.0684 10.8333 58.1421 9.75962 59.4667 9.75962C60.7907 9.75962 61.8651 10.8333 61.8651 12.1573Z" fill="#DCECF0"/>
<path d="M76.1552 12.1573C76.1552 13.4826 75.0814 14.5557 73.7568 14.5557C72.4328 14.5557 71.3584 13.4826 71.3584 12.1573C71.3584 10.8333 72.4328 9.75962 73.7568 9.75962C75.0814 9.75962 76.1552 10.8333 76.1552 12.1573Z" fill="#DCECF0"/>
<path d="M44.5498 130.442H187.689" stroke="#C3DBE6" stroke-width="4" stroke-miterlimit="10" stroke-linecap="round" stroke-linejoin="round"/>
<path d="M44.5498 138.696H156.362" stroke="#C3DBE6" stroke-width="4" stroke-miterlimit="10" stroke-linecap="round" stroke-linejoin="round"/>
<path d="M44.5498 146.951H114.172" stroke="#C3DBE6" stroke-width="4" stroke-miterlimit="10" stroke-linecap="round" stroke-linejoin="round"/>
<path d="M207.815 130.442H221.048" stroke="#C3DBE6" stroke-width="4" stroke-miterlimit="10" stroke-linecap="round" stroke-linejoin="round"/>
<path d="M207.815 138.696H221.048" stroke="#C3DBE6" stroke-width="4" stroke-miterlimit="10" stroke-linecap="round" stroke-linejoin="round"/>
<path d="M207.815 146.951H221.048" stroke="#C3DBE6" stroke-width="4" stroke-miterlimit="10" stroke-linecap="round" stroke-linejoin="round"/>
<path d="M232.106 130.442H245.339" stroke="#C3DBE6" stroke-width="4" stroke-miterlimit="10" stroke-linecap="round" stroke-linejoin="round"/>
<path d="M232.106 138.696H245.339" stroke="#C3DBE6" stroke-width="4" stroke-miterlimit="10" stroke-linecap="round" stroke-linejoin="round"/>
<path d="M232.106 146.951H245.339" stroke="#C3DBE6" stroke-width="4" stroke-miterlimit="10" stroke-linecap="round" stroke-linejoin="round"/>
<path d="M256.399 130.442H269.631" stroke="#C3DBE6" stroke-width="4" stroke-miterlimit="10" stroke-linecap="round" stroke-linejoin="round"/>
<path d="M256.399 138.696H269.631" stroke="#C3DBE6" stroke-width="4" stroke-miterlimit="10" stroke-linecap="round" stroke-linejoin="round"/>
<path d="M256.399 146.951H269.631" stroke="#C3DBE6" stroke-width="4" stroke-miterlimit="10" stroke-linecap="round" stroke-linejoin="round"/>
<path d="M268.665 26.1693V57.9463" stroke="#C3DBE6" stroke-width="1.0537" stroke-miterlimit="10"/>
<path d="M268.665 36.0289V50.4912" stroke="#C3DBE6" stroke-width="8.42959" stroke-miterlimit="10"/>
<path d="M261.606 31.5469V63.3232" stroke="#C3DBE6" stroke-width="1.0537" stroke-miterlimit="10"/>
<path d="M261.606 46.3367V55.8691" stroke="#C3DBE6" stroke-width="8.42959" stroke-miterlimit="10"/>
<path d="M254.549 34.3382V66.1152" stroke="#C3DBE6" stroke-width="1.0537" stroke-miterlimit="10"/>
<path d="M254.549 50.5326V65.4434" stroke="#C3DBE6" stroke-width="8.42959" stroke-miterlimit="10"/>
<path d="M247.489 32.7689V64.5459" stroke="#C3DBE6" stroke-width="1.0537" stroke-miterlimit="10"/>
<path d="M247.489 37.4128V57.0898" stroke="#C3DBE6" stroke-width="8.42959" stroke-miterlimit="10"/>
<path d="M240.431 43.642V67.4746" stroke="#C3DBE6" stroke-width="1.0537" stroke-miterlimit="10"/>
<path d="M240.431 49.7951V60.3057" stroke="#C3DBE6" stroke-width="8.42959" stroke-miterlimit="10"/>
<path d="M233.372 47.0641V75.4189" stroke="#C3DBE6" stroke-width="1.0537" stroke-miterlimit="10"/>
<path d="M233.372 54.5205V71.3867" stroke="#C3DBE6" stroke-width="8.42959" stroke-miterlimit="10"/>
<path d="M226.312 42.0533V66.7412" stroke="#C3DBE6" stroke-width="1.0537" stroke-miterlimit="10"/>
<path d="M226.312 47.838V61.8525" stroke="#C3DBE6" stroke-width="8.42959" stroke-miterlimit="10"/>
<path d="M219.254 32.1533V61.7295" stroke="#C3DBE6" stroke-width="1.0537" stroke-miterlimit="10"/>
<path d="M219.254 37.9003V56.4766" stroke="#C3DBE6" stroke-width="8.42959" stroke-miterlimit="10"/>
<path d="M212.194 46.1415V69.6074" stroke="#C3DBE6" stroke-width="1.0537" stroke-miterlimit="10"/>
<path d="M212.194 51.764V63.1299" stroke="#C3DBE6" stroke-width="8.42959" stroke-miterlimit="10"/>
<path d="M205.136 55.7461V79.334" stroke="#C3DBE6" stroke-width="1.0537" stroke-miterlimit="10"/>
<path d="M205.136 63.2011V71.8789" stroke="#C3DBE6" stroke-width="8.42959" stroke-miterlimit="10"/>
<path d="M198.076 49.6363V73.7129" stroke="#C3DBE6" stroke-width="1.0537" stroke-miterlimit="10"/>
<path d="M198.076 57.0904V66.1758" stroke="#C3DBE6" stroke-width="8.42959" stroke-miterlimit="10"/>
<path d="M191.019 55.7466V84.9561" stroke="#C3DBE6" stroke-width="1.0537" stroke-miterlimit="10"/>
<path d="M191.019 63.2021V80.0684" stroke="#C3DBE6" stroke-width="8.42959" stroke-miterlimit="10"/>
<path d="M183.959 55.746V75.9727" stroke="#C3DBE6" stroke-width="1.0537" stroke-miterlimit="10"/>
<path d="M183.959 63.2023V71.4316" stroke="#C3DBE6" stroke-width="8.42959" stroke-miterlimit="10"/>
<path d="M176.899 52.5698V73.7129" stroke="#C3DBE6" stroke-width="1.0537" stroke-miterlimit="10"/>
<path d="M176.899 60.0239V66.1758" stroke="#C3DBE6" stroke-width="8.42959" stroke-miterlimit="10"/>
<path d="M169.842 55.7471V96.2012" stroke="#C3DBE6" stroke-width="1.0537" stroke-miterlimit="10"/>
<path d="M169.842 63.202V91.8008" stroke="#C3DBE6" stroke-width="8.42959" stroke-miterlimit="10"/>
<path d="M162.781 67.1124V98.8887" stroke="#C3DBE6" stroke-width="1.0537" stroke-miterlimit="10"/>
<path d="M162.781 74.5671V91.4326" stroke="#C3DBE6" stroke-width="8.42959" stroke-miterlimit="10"/>
<path d="M155.723 68.4582V104.635" stroke="#C3DBE6" stroke-width="1.0537" stroke-miterlimit="10"/>
<path d="M155.723 75.3023V97.1787" stroke="#C3DBE6" stroke-width="8.42959" stroke-miterlimit="10"/>
<path d="M148.664 89.2352V118.567" stroke="#C3DBE6" stroke-width="1.0537" stroke-miterlimit="10"/>
<path d="M148.664 94.2451V111.111" stroke="#C3DBE6" stroke-width="8.42959" stroke-miterlimit="10"/>
<path d="M141.605 60.971V92.748" stroke="#C3DBE6" stroke-width="1.0537" stroke-miterlimit="10"/>
<path d="M141.605 68.428V89.2051" stroke="#C3DBE6" stroke-width="8.42959" stroke-miterlimit="10"/>
<path d="M134.546 63.5687V95.3457" stroke="#C3DBE6" stroke-width="1.0537" stroke-miterlimit="10"/>
<path d="M134.546 75.5457V87.8896" stroke="#C3DBE6" stroke-width="8.42959" stroke-miterlimit="10"/>
<path d="M127.487 75.546V107.322" stroke="#C3DBE6" stroke-width="1.0537" stroke-miterlimit="10"/>
<path d="M127.487 89.111V99.8662" stroke="#C3DBE6" stroke-width="8.42959" stroke-miterlimit="10"/>
<path d="M120.429 83.002V114.778" stroke="#C3DBE6" stroke-width="1.0537" stroke-miterlimit="10"/>
<path d="M120.429 98.8899V107.322" stroke="#C3DBE6" stroke-width="8.42959" stroke-miterlimit="10"/>
<path d="M113.37 78.6009V110.378" stroke="#C3DBE6" stroke-width="1.0537" stroke-miterlimit="10"/>
<path d="M113.37 92.6553V102.922" stroke="#C3DBE6" stroke-width="8.42959" stroke-miterlimit="10"/>
<path d="M106.312 75.546V107.322" stroke="#C3DBE6" stroke-width="1.0537" stroke-miterlimit="10"/>
<path d="M106.312 87.0335V99.8662" stroke="#C3DBE6" stroke-width="8.42959" stroke-miterlimit="10"/>
<path d="M99.252 83.377V115.153" stroke="#C3DBE6" stroke-width="1.0537" stroke-miterlimit="10"/>
<path d="M99.252 87.8992V107.698" stroke="#C3DBE6" stroke-width="8.42959" stroke-miterlimit="10"/>
<path d="M92.1934 70.1583V101.935" stroke="#C3DBE6" stroke-width="1.0537" stroke-miterlimit="10"/>
<path d="M92.1934 77.6144V96.8027" stroke="#C3DBE6" stroke-width="8.42959" stroke-miterlimit="10"/>
<path d="M85.1328 57.0882V88.8652" stroke="#C3DBE6" stroke-width="1.0537" stroke-miterlimit="10"/>
<path d="M85.1328 64.5413V83.9736" stroke="#C3DBE6" stroke-width="8.42959" stroke-miterlimit="10"/>
<path d="M78.0752 62.4652V94.2422" stroke="#C3DBE6" stroke-width="1.0537" stroke-miterlimit="10"/>
<path d="M78.0752 67.8428V86.7871" stroke="#C3DBE6" stroke-width="8.42959" stroke-miterlimit="10"/>
<path d="M71.0156 55.8682V87.6445" stroke="#C3DBE6" stroke-width="1.0537" stroke-miterlimit="10"/>
<path d="M71.0156 63.3245V68.5801" stroke="#C3DBE6" stroke-width="8.42959" stroke-miterlimit="10"/>
<path d="M63.957 48.6566V80.4336" stroke="#C3DBE6" stroke-width="1.0537" stroke-miterlimit="10"/>
<path d="M63.957 56.1128V64.5459" stroke="#C3DBE6" stroke-width="8.42959" stroke-miterlimit="10"/>
<path d="M56.8965 63.9959V101.7" stroke="#C3DBE6" stroke-width="1.0537" stroke-miterlimit="10"/>
<path d="M56.8965 67.9077V94.2461" stroke="#C3DBE6" stroke-width="8.42959" stroke-miterlimit="10"/>
<path d="M49.8389 85.5674V117.344" stroke="#C3DBE6" stroke-width="1.0537" stroke-miterlimit="10"/>
<path d="M49.8389 77.5053V91.8047" stroke="#C3DBE6" stroke-width="8.42959" stroke-miterlimit="10"/>
<path d="M42.7803 83.3724V115.149" stroke="#C3DBE6" stroke-width="1.0537" stroke-miterlimit="10"/>
<path d="M42.7803 89.1177V107.695" stroke="#C3DBE6" stroke-width="8.42959" stroke-miterlimit="10"/>
<path d="M303.709 106.809H263.475C262.172 106.809 261.115 105.752 261.115 104.449V76.8726C261.115 75.5702 262.172 74.5138 263.475 74.5138H303.709C305.011 74.5138 306.068 75.5702 306.068 76.8726V104.449C306.068 105.752 305.011 106.809 303.709 106.809Z" fill="white"/>
<path d="M303.709 106.809H263.475C262.172 106.809 261.115 105.752 261.115 104.449V76.8726C261.115 75.5702 262.172 74.5138 263.475 74.5138H303.709C305.011 74.5138 306.068 75.5702 306.068 76.8726V104.449C306.068 105.752 305.011 106.809 303.709 106.809Z" stroke="#C3DBE6" stroke-width="3.64125" stroke-miterlimit="10"/>
<path d="M264.385 102.758C267.585 102.758 267.585 98.3804 270.786 98.3804C273.987 98.3804 273.987 90.662 277.187 90.662C280.387 90.662 279.501 95.693 282.702 95.693C285.902 95.693 286.789 82.5145 289.99 82.5145C293.191 82.5145 293.191 88.299 296.392 88.299C299.593 88.299 299.593 82.5145 302.794 82.5145" stroke="#C3DBE6" stroke-width="2.66667" stroke-miterlimit="10" stroke-linecap="round" stroke-linejoin="round"/>
<path d="M171.071 212.532C170.766 210.15 169.551 207.952 167.977 206.137C166.403 204.322 164.475 202.849 162.523 201.449C160.031 199.661 157.344 197.915 154.298 197.566C152.85 197.401 151.325 197.579 150.066 198.312C148.806 199.045 147.858 200.392 147.834 201.848C147.803 203.631 149.082 205.169 150.477 206.281C151.871 207.392 153.476 208.289 154.568 209.698C155.98 211.519 156.344 213.94 157.494 215.936C158.592 217.844 160.426 219.316 162.527 219.975C164.403 220.563 167.662 220.807 169.101 219.174C170.669 217.396 171.371 214.859 171.071 212.532Z" fill="#2F80ED"/>
<path d="M171.576 212.7C170.91 211.01 170.603 209.131 171.017 207.361C171.494 205.318 172.871 203.603 173.585 201.631C174.31 199.627 174.352 197.359 175.493 195.559C176.811 193.48 179.603 192.452 181.939 193.226C184.275 194 185.908 196.53 185.605 198.972C185.393 200.671 184.377 202.159 183.92 203.809C183.266 206.172 183.785 208.75 183.063 211.092C182.46 213.051 180.966 214.717 179.084 215.529C178.196 215.913 177.247 216.142 176.343 216.483C175.744 216.709 175.053 217.119 174.388 216.937C173.014 216.56 172.042 213.882 171.576 212.7Z" fill="#2F80ED"/>
<path d="M176.128 227.759C177.05 226.07 178.885 224.916 180.808 224.819C182.177 224.75 183.52 225.177 184.886 225.293C186.404 225.422 187.955 225.167 189.441 225.501C190.926 225.837 192.402 227.055 192.284 228.573C192.198 229.679 191.271 230.576 190.231 230.957C189.19 231.338 188.048 231.302 186.942 231.237C185.835 231.171 184.705 231.083 183.634 231.37C182.354 231.714 181.278 232.56 180.099 233.166C178.852 233.807 176.843 234.355 175.995 232.932C175.11 231.443 175.331 229.219 176.128 227.759Z" fill="#236DD2"/>
<path d="M172.163 246.834C172.163 246.834 173.624 228.6 183.159 227.596" stroke="#FF7800" stroke-width="0.965307" stroke-miterlimit="10"/>
<path d="M172.286 251.015C172.286 251.015 170.78 222.577 178.308 202.168" stroke="#FF7800" stroke-width="0.965307" stroke-miterlimit="10"/>
<path d="M172.481 234.111C172.481 234.111 172.787 214.548 156.227 203.675" stroke="#FF7800" stroke-width="0.965307" stroke-miterlimit="10"/>
<path d="M182.73 246.141H161.576C161.576 246.141 159.843 255.33 164.698 264H172.153H179.61C184.465 255.33 182.73 246.141 182.73 246.141Z" fill="#304A5F"/>
<path d="M184.162 249.903C184.075 247.564 183.864 246.141 183.864 246.141H172.153H160.442C160.442 246.141 160.231 247.564 160.146 249.903H184.162Z" fill="#2C4C6A"/>
<path d="M109.756 28.5099H122.758V48.5342H109.756V28.5099Z" fill="#C3DBE6"/>
<path d="M116.258 61.1514L128.112 46.4028H104.402L116.258 61.1514Z" fill="#C3DBE6"/>
<path d="M47.3413 257.601H40.3992L39.7178 246.358L46.4907 245.93L47.3413 257.601Z" fill="#FFC29F"/>
<path d="M10.3889 257.348L3.61523 257.145L4.82898 247.288L11.0966 248.248L10.3889 257.348Z" fill="#FFC29F"/>
<path d="M16.4782 140.527L2.89062 253.152H11.2107L30.9453 171.194L39.3528 253.152H47.5765L45.5546 140.527H16.4782Z" fill="#2C4C6A"/>
<path d="M65.9824 99.0764C65.9824 99.0764 67.3577 96.4306 67.2523 95.2127C67.1463 93.9955 66.9037 92.2508 68.1417 90.3806C68.4307 89.9439 69.2369 88.7849 69.2369 88.7849C69.2369 88.7849 69.8974 89.4857 69.5543 90.2378C69.2105 90.992 68.9762 91.7961 68.9762 91.7961C68.9762 91.7961 69.5765 90.7029 71.857 90.0389C72.9252 89.7283 77.1307 88.6615 77.1307 88.6615C77.7261 88.6685 77.645 89.5211 76.4736 90.077C76.4736 90.077 76.9962 90.6163 76.0355 91.1556C76.0355 91.1556 76.7085 91.6581 75.379 92.4026C75.379 92.4026 75.9086 92.8282 74.5362 93.6489C73.3072 94.385 71.324 95.4498 70.8859 96.1478C70.2995 97.0829 69.3533 100.288 69.3533 100.288L65.9824 99.0764Z" fill="#FFC29F"/>
<path d="M22.3709 86.9942C22.3709 86.9942 13.9115 89.4709 11.9907 89.9762C10.0699 90.4822 11.9907 102.715 14.6192 116.768C17.2484 130.821 16.4797 140.526 16.4797 140.526H45.5561C45.5561 140.526 46.7643 95.1542 46.0947 93.6161C44.8816 90.8295 32.6874 86.963 32.6874 86.963L22.3709 86.9942Z" fill="#2F80ED"/>
<path d="M24.0695 76.9458C24.0695 76.9458 24.3586 83.9101 23.1455 86.707L24.6275 89.5213L28.537 91.8975L31.0137 90.0405L31.7387 87.9208V76.9458H24.0695Z" fill="#FFA980"/>
<path d="M20.9744 71.7987C20.6327 70.9059 20.6632 69.8765 21.0576 69.0059C21.3799 68.2947 21.924 67.7035 22.2713 67.0033C22.5742 66.3927 22.7371 65.6863 23.2203 65.2046C23.7096 64.7173 24.4659 64.5558 25.1431 64.6909C25.821 64.8261 26.4234 65.2254 26.9079 65.7168C27.5741 66.3927 28.0468 67.257 28.2575 68.1817C28.5126 69.3061 28.3816 70.481 28.1598 71.6122C27.9581 72.6381 27.6593 73.6917 26.9537 74.4625C26.3978 75.0705 25.6068 75.4579 24.7868 75.5252C23.9772 75.5917 22.8009 75.3637 22.3469 74.604C22.1257 74.2324 22.0183 73.7916 21.8208 73.4062C21.5449 72.8669 21.192 72.3671 20.9744 71.7987Z" fill="#2B2F3A"/>
<path d="M35.8492 65.847C35.8492 65.847 37.5343 81.2818 33.019 83.5062C30.098 84.9445 25.4357 83.405 24.7287 76.5301C24.0203 69.6553 27.1167 66.3079 30.7267 65.847C33.8945 65.4429 35.8492 65.847 35.8492 65.847Z" fill="#FFC29F"/>
<path d="M24.6271 73.5316C24.6271 73.5316 23.5832 72.3858 22.5719 73.5316C21.5612 74.6774 23.4106 77.073 24.8108 77.1895L24.6271 73.5316Z" fill="#FFC29F"/>
<path d="M26.9919 68.0516C27.8265 68.1653 28.6791 68.06 29.5143 68.1709C30.4938 68.3005 31.406 68.7198 32.3348 69.0567C33.7163 69.5565 35.1914 69.8795 36.6526 69.7263C38.1131 69.5725 39.5625 68.8938 40.4214 67.7016C41.2948 66.4878 41.4584 64.7979 40.8317 63.4393C40.2065 62.0807 38.816 61.1068 37.3257 60.982C35.6565 60.842 34.0879 61.6786 32.5158 62.2547C30.8383 62.8695 29.0582 63.2022 27.2719 63.2348C26.5365 63.248 25.7906 63.2119 25.0767 63.3887C24.3634 63.5654 23.6668 64.0001 23.3936 64.6828C23.0429 65.5597 23.6168 66.2411 24.2622 66.7353C25.1037 67.3799 25.9147 67.904 26.9919 68.0516Z" fill="#2B2F3A"/>
<path d="M23.4362 85.8646C23.4362 85.8646 24.408 89.2355 28.5366 91.8979C28.4021 93.1616 24.8621 95.7221 23.3516 91.5021C22.6037 89.4136 22.3701 86.9944 22.3701 86.9944L23.4362 85.8646Z" fill="#236DD2"/>
<path d="M28.5352 91.897C31.6523 89.7565 31.7369 85.978 31.7369 85.978L32.6852 86.9623C32.6852 86.9623 33.3873 91.1719 31.9047 93.11C30.8878 94.4395 28.671 92.7108 28.5352 91.897Z" fill="#236DD2"/>
<path d="M14.4828 140.963C14.4828 140.963 17.4149 145.411 18.6779 146.423C19.9422 147.433 20.914 149.572 20.914 149.572L17.1882 154.642C17.1882 154.642 14.9493 153.898 14.2423 151.219C13.5338 148.54 12.8656 148.242 11.7025 145.664C10.54 143.086 10.54 143.086 10.54 143.086L14.4828 140.963Z" fill="#FFC29F"/>
<path d="M11.5489 90.4179C11.5489 90.4179 7.23807 90.6834 5.21609 98.5696C3.19411 106.455 0.679295 119.424 0.00483993 124.952C-0.280746 127.292 12.1672 147.803 12.1672 147.803C12.1672 147.803 14.6411 145.558 16.8426 143.681C16.8426 143.681 9.96222 129.304 9.96222 124.046C9.96222 124.046 16.1377 106.891 16.3366 101.703C16.539 96.4464 16.5668 90.9614 11.5489 90.4179Z" fill="#2F80ED"/>
<path d="M46.0946 93.6165C47.7083 93.8611 52.6333 104.838 55.7671 110.5C58.9016 116.162 58.9016 116.162 58.9016 116.162L66.4835 96.751C66.4835 96.751 69.0115 96.3462 70.5274 98.5705C70.5274 98.5705 66.4835 124.755 65.4728 127.687C64.4615 130.619 61.3277 132.742 55.7671 125.766C50.2065 118.79 40.6019 105.243 39.793 103.726C38.984 102.21 36.7603 92.201 46.0946 93.6165Z" fill="#2F80ED"/>
<path d="M40.3988 256.791H46.8695C46.8695 256.791 47.5772 256.791 49.7004 259.015C51.8236 261.24 57.99 259.117 60.3163 263.564H39.8934C39.8934 263.564 37.9727 260.027 40.3988 256.791Z" fill="#21323F"/>
<path d="M1.27315 263.564C0.498181 260.97 2.31775 259.082 2.891 256.791C3.24452 255.377 10.3426 254.504 11.0462 257.6C11.7199 260.565 11.1806 263.564 11.1806 263.564H1.27315Z" fill="#21323F"/>
<path d="M17.0636 156.284L15.7285 155.371L21.4874 146.94L22.8238 147.852L17.0636 156.284Z" fill="#203B53"/>
<path d="M45.5914 142.615H16.4775V140.526H45.5914V142.615Z" fill="#203B53"/>
<path d="M30.9463 171.194L34.9902 156.08L32.3278 184.656L30.9463 171.194Z" fill="#203B53"/>
<path d="M46.1592 112.924L46.2951 101.838L48.8695 116.656L46.1592 112.924Z" fill="#236DD2"/>
<path d="M13.8213 112.426L15.7053 105.559L15.0101 118.975C15.0101 118.975 13.8657 113.112 13.8213 112.426Z" fill="#236DD2"/>
<path d="M293.13 262.616L279.668 203.695H284.7L295.124 262.616C295.06 263.881 293.193 263.881 293.13 262.616Z" fill="#2C4C6A"/>
<path d="M259.12 262.616L245.658 203.695H250.69L261.114 262.616C261.051 263.881 259.183 263.881 259.12 262.616Z" fill="#2C4C6A"/>
<path d="M212.533 262.616L225.995 203.695H220.963L210.539 262.616C210.602 263.881 212.47 263.881 212.533 262.616Z" fill="#A2C5D2"/>
<path d="M298.247 157.051H270.87C269.105 157.051 267.528 158.155 266.925 159.813L253.537 196.595C252.54 199.333 254.568 202.229 257.481 202.229H284.859C286.623 202.229 288.199 201.125 288.804 199.467L302.191 162.685C303.188 159.947 301.16 157.051 298.247 157.051Z" fill="#A2C5D2"/>
<path d="M287.507 205.158H217.155C216.345 205.158 215.688 204.502 215.688 203.693C215.688 202.883 216.345 202.227 217.155 202.227H287.507C288.317 202.227 288.974 202.883 288.974 203.693C288.974 204.502 288.317 205.158 287.507 205.158Z" fill="#A2C5D2"/>
<path d="M287.507 205.158H259.132C258.322 205.158 257.666 204.502 257.666 203.693C257.666 202.883 258.322 202.227 259.132 202.227H287.507C288.317 202.227 288.974 202.883 288.974 203.693C288.974 204.502 288.317 205.158 287.507 205.158Z" fill="#91B9C4"/>
<path d="M244.319 262.616L257.782 203.695H252.749L242.325 262.616C242.388 263.881 244.256 263.881 244.319 262.616Z" fill="#A2C5D2"/>
<path d="M266.749 119.109C266.749 119.109 262.705 119.327 262.368 123.708C262.031 128.088 262.818 130.363 260.932 134.744C259.044 139.126 257.515 145.006 265.401 145.545C273.287 146.085 275.711 145.748 278.138 147.634C280.566 149.522 288.839 143.793 285.873 138.738C282.908 133.682 281.779 130.785 282.992 126.875C284.206 122.966 281.651 118.679 276.927 116.833C272.96 115.283 269.715 115.521 266.749 119.109Z" fill="#21323F"/>
<path d="M264.701 144.196C264.701 144.196 265.804 147.633 263.089 157.541C260.378 167.43 259.492 170.717 256.935 172.571C255.358 173.716 237.427 173.716 237.427 173.716V168.662L253.201 166.742C253.201 166.742 255.195 156.954 257.212 150.81C257.909 148.685 259.081 143.169 261.573 142.081C264.065 140.993 264.701 144.196 264.701 144.196Z" fill="#2F80ED"/>
<path d="M284.95 161.118C284.206 166.707 282.184 180.392 282.184 180.392H261.22C261.22 180.392 261.851 172.021 260.824 167.475C260.638 166.642 260.395 165.931 260.08 165.429C258.454 162.833 256.998 160.406 256.981 157.729C256.981 157.082 257.063 156.411 257.249 155.723C258.188 152.221 259.603 144.465 261.357 142.313C263.113 140.154 271.85 140.43 271.85 140.43C271.85 140.43 283.274 140.464 286.698 142.378C287.61 142.889 287.959 144.036 288.032 145.411C288.266 149.69 285.509 156.888 284.95 161.118Z" fill="#2F80ED"/>
<path d="M281.57 162.937C281.57 162.937 265.587 164.224 260.824 167.475C260.638 166.641 260.395 165.93 260.08 165.428C258.454 162.832 256.998 160.406 256.981 157.729C258.042 159.929 260.743 162.848 267.617 162.937C278.674 163.067 281.57 162.937 281.57 162.937Z" fill="#236DD2"/>
<path d="M284.949 161.118C284.206 166.707 282.184 180.392 282.184 180.392L283.187 148.048L288.031 145.411C288.265 149.69 285.508 156.888 284.949 161.118Z" fill="#236DD2"/>
<path d="M276.892 169.306C276.892 169.306 266.893 169.673 263.755 169.875C263.755 169.875 260.902 168.796 259.133 168.662C256.454 168.46 254.095 171.137 253.388 173.716H276.56L276.892 169.306Z" fill="#FFC29F"/>
<path d="M287.594 143.448C287.594 143.448 290.54 148.949 292.462 156.228C294.383 163.507 297.011 170.887 294.585 172.909C292.158 174.931 276.59 174.122 276.59 174.122L276.186 168.663L288.046 166.743C288.046 166.743 283.565 155.52 282.857 153.498C282.15 151.476 281.614 145.26 284.106 144.173C286.598 143.085 287.594 143.448 287.594 143.448Z" fill="#2F80ED"/>
<path d="M230.461 257.812H226.89L226.423 252.54L230.784 252.107L230.461 257.812Z" fill="#FFC29F"/>
<path d="M230.461 257.812C230.461 257.812 231.778 259.184 231.342 262.219C231.135 263.656 228.003 263.563 222.715 263.563H217.452C216.557 263.563 216.162 262.453 216.844 261.875C217.165 261.603 217.615 261.347 218.247 261.152C224.195 259.31 226.89 257.812 226.89 257.812H230.461Z" fill="#192730"/>
<path d="M272.759 180.391C272.725 182.211 276.903 188.381 276.074 194.394C275.531 198.337 272.145 202.229 264.246 202.229C253.459 202.229 236.27 202.113 233.461 202.229C231.232 202.321 230.169 202.371 231.476 206.576C234.573 216.535 231.955 233.491 231.142 256.44H226.432C226.432 256.44 222.252 232.623 220.52 221.101C217.824 203.173 213.73 196.14 221.531 192.423C229.782 188.491 261.247 180.391 261.247 180.391H272.759Z" fill="#203B53"/>
<path d="M240.627 257.812H237.055L236.589 252.54L240.95 252.107L240.627 257.812Z" fill="#FFC29F"/>
<path d="M240.627 257.812C240.627 257.812 241.943 259.184 241.508 262.219C241.301 263.656 238.169 263.563 232.882 263.563H227.617C226.723 263.563 226.328 262.453 227.01 261.875C227.331 261.603 227.781 261.347 228.413 261.152C234.361 259.31 237.055 257.812 237.055 257.812H240.627Z" fill="#21323F"/>
<path d="M282.183 180.391C282.149 182.211 286.327 188.381 285.498 194.394C284.955 198.337 281.569 202.229 273.669 202.229C262.883 202.229 245.766 202.229 242.885 202.229C240.654 202.229 239.593 202.371 240.9 206.576C243.997 216.535 242.615 233.693 241.065 256.44H236.341C236.341 256.44 231.676 232.623 229.944 221.101C227.248 203.173 223.154 196.14 230.955 192.423C239.205 188.491 268.267 180.391 268.267 180.391H282.183Z" fill="#2C4C6A"/>
<path d="M266.14 140.675C266.14 140.675 266.076 145.142 269.106 147.703C269.106 147.703 275.538 144.704 277.863 140.685C277.863 140.685 271.823 140.023 266.14 140.675Z" fill="#FFC29F"/>
<path d="M267.45 140.548C267.45 140.548 269.035 140.386 269.035 138.527C269.035 136.666 269.221 133.128 269.221 133.128L275.185 133.633C275.185 133.633 274.68 139.476 275.64 140.548C276.601 141.62 276.601 141.62 276.601 141.62C276.601 141.62 268.41 143.014 267.45 140.548Z" fill="#FFC29F"/>
<path d="M269.038 137.777C269.038 137.777 272.96 138.384 275.054 136.716L275.186 133.633L269.038 134.963V137.777Z" fill="#FFA980"/>
<path d="M265.568 121.291C265.568 121.291 260.311 135.704 267.692 137.322C275.072 138.94 276.588 131.256 276.588 131.256C276.588 131.256 278.496 130.803 278.791 129.15C279.078 127.55 276.857 128.156 276.857 128.156C276.857 128.156 278.819 122.228 274.364 120.236C269.681 118.143 266.479 119.239 265.568 121.291Z" fill="#FFC29F"/>
<path d="M266.272 119.528C266.272 119.528 267.961 127.616 276.858 128.156C276.858 128.156 279.149 122.427 277.6 120C276.049 117.574 268.901 116.058 266.272 119.528Z" fill="#21323F"/>
<path d="M258.148 172.099H223.014L214.597 148.972C214.239 147.99 214.967 146.952 216.012 146.952H247.94C248.574 146.952 249.138 147.348 249.355 147.942L258.148 172.099Z" fill="#21323F"/>
<path d="M279.029 174.284H244.114C243.511 174.284 243.022 173.795 243.022 173.192C243.022 172.589 243.511 172.1 244.114 172.1H279.029C279.632 172.1 280.121 172.589 280.121 173.192C280.121 173.795 279.632 174.284 279.029 174.284Z" fill="#21323F"/>
<path d="M258.041 174.284H223.125C222.523 174.284 222.033 173.795 222.033 173.192C222.033 172.589 222.523 172.1 223.125 172.1H258.041C258.644 172.1 259.132 172.589 259.132 173.192C259.132 173.795 258.644 174.284 258.041 174.284Z" fill="#21323F"/>
<path d="M142.973 262.182L123.357 176.326H130.69L145.879 262.182C145.786 264.025 143.065 264.025 142.973 262.182Z" fill="#2C4C6A"/>
<path d="M65.4058 262.182L85.0211 176.326H77.6887L62.5 262.182C62.5915 264.025 65.3136 264.025 65.4058 262.182Z" fill="#C3DBE6"/>
<path d="M253.815 262.182L273.431 176.326H266.099L250.91 262.182C251.002 264.025 253.723 264.025 253.815 262.182Z" fill="#C3DBE6"/>
<path d="M63.7426 178.146H301.137C301.964 178.146 302.634 177.523 302.634 176.755V176.319C302.634 175.55 301.964 174.927 301.137 174.927H63.7426C62.9151 174.927 62.2441 175.55 62.2441 176.319V176.755C62.2441 177.523 62.9151 178.146 63.7426 178.146Z" fill="#A2C5D2"/>
<path d="M123.782 172.099H158.916L167.333 148.972C167.69 147.99 166.963 146.952 165.918 146.952H133.99C133.357 146.952 132.791 147.348 132.575 147.942L123.782 172.099Z" fill="#21323F"/>
<path d="M102.901 174.284H137.817C138.42 174.284 138.909 173.795 138.909 173.192C138.909 172.589 138.42 172.1 137.817 172.1H102.901C102.299 172.1 101.81 172.589 101.81 173.192C101.81 173.795 102.299 174.284 102.901 174.284Z" fill="#21323F"/>
<path d="M123.891 174.284H158.806C159.409 174.284 159.898 173.795 159.898 173.192C159.898 172.589 159.409 172.1 158.806 172.1H123.891C123.288 172.1 122.799 172.589 122.799 173.192C122.799 173.795 123.288 174.284 123.891 174.284Z" fill="#21323F"/>
</svg>
