<svg width="35" height="26" viewBox="0 0 35 26" fill="none" xmlns="http://www.w3.org/2000/svg">
<path fill-rule="evenodd" clip-rule="evenodd" d="M8.75 13.0001C8.75 12.7846 8.86523 12.5779 9.07035 12.4255C9.27547 12.2732 9.55367 12.1876 9.84375 12.1876H22.5159L17.8194 8.7003C17.614 8.54773 17.4986 8.34081 17.4986 8.12505C17.4986 7.90929 17.614 7.70237 17.8194 7.5498C18.0248 7.39723 18.3033 7.31152 18.5938 7.31152C18.8842 7.31152 19.1627 7.39723 19.3681 7.5498L25.9306 12.4248C26.0325 12.5003 26.1133 12.5899 26.1684 12.6886C26.2236 12.7874 26.252 12.8932 26.252 13.0001C26.252 13.1069 26.2236 13.2127 26.1684 13.3115C26.1133 13.4102 26.0325 13.4998 25.9306 13.5753L19.3681 18.4503C19.1627 18.6029 18.8842 18.6886 18.5938 18.6886C18.3033 18.6886 18.0248 18.6029 17.8194 18.4503C17.614 18.2977 17.4986 18.0908 17.4986 17.8751C17.4986 17.6593 17.614 17.4524 17.8194 17.2998L22.5159 13.8126H9.84375C9.55367 13.8126 9.27547 13.7269 9.07035 13.5746C8.86523 13.4222 8.75 13.2155 8.75 13.0001Z" fill="#FCFCFC"/>
</svg>
